<svg xmlns="http://www.w3.org/2000/svg" xmlns:xlink="http://www.w3.org/1999/xlink" version="1.1" x="0px" y="0px" viewBox="0 0 100 125" enable-background="new 0 0 100 100" xml:space="preserve">
  <g display="none">
    <rect x="-192" display="inline" width="185" height="99" />
    <rect y="-36" display="inline" width="100" height="30" />
    <text transform="matrix(1 0 0 1 66 -19.5)" display="inline" fill="#000000" font-family="'Helvetica'" font-size="2.4"></text>
    <text transform="matrix(1 0 0 1 7.166 -24.5)" display="inline">
      <tspan x="0" y="0" fill="#000000" font-family="'Helvetica-Bold'" font-size="6.1578"></tspan>
      <tspan x="1.12" y="4.8" fill="#000000" font-family="'Helvetica-Bold'" font-size="4"></tspan>
    </text>
    <text transform="matrix(1 0 0 1 -178.5 10.5)" display="inline" fill="#000000" font-family="'Helvetica-Bold'" font-size="6.1578">Reminders</text>
    <line display="inline" fill="#000000" stroke="#FFFFFF" stroke-miterlimit="10" x1="8" y1="-14.5" x2="18" y2="-14.5" />
    <line display="inline" fill="#000000" stroke="#FFFFFF" stroke-miterlimit="10" x1="-179" y1="16.5" x2="-162" y2="16.5" />
    <g display="inline">
      <g>
        <g>
          <rect x="-170.802" y="31.318" fill="#000000" width="8.721" height="8.642" />
          <path fill="#000000" d="M-164.455,42.312h4.747v-4.703h-4.747V42.312z M-159.266,42.749h-5.63V37.17h5.63V42.749      L-159.266,42.749z M-166.221,44.062h8.279v-8.203h-8.279V44.062L-166.221,44.062z M-157.5,44.5h-9.163v-9.079h9.163V44.5      L-157.5,44.5z" />
          <polygon fill="#000000" points="-166.149,44.133 -166.292,43.991 -158.013,35.787 -157.871,35.929     " />
        </g>
      </g>
    </g>
    <rect x="-179" y="58" display="inline" fill="none" width="35" height="32.5" />
    <text transform="matrix(1 0 0 1 -179 60.1299)" display="inline">
      <tspan x="0" y="0" fill="#000000" font-family="'Helvetica-Bold'" font-size="3"></tspan>
      <tspan x="0" y="5" fill="#000000" font-family="'Helvetica'" font-size="2.4"></tspan>
      <tspan x="0" y="10" fill="#000000" font-family="'Helvetica'" font-size="2.4"></tspan>
      <tspan x="0" y="14.5" fill="#000000" font-family="'Helvetica'" font-size="2.4"></tspan>
      <tspan x="0" y="17.5" fill="#000000" font-family="'Helvetica'" font-size="2.4"></tspan>
      <tspan x="0" y="22" fill="#000000" font-family="'Helvetica-Bold'" font-size="2.4"></tspan>
      <tspan x="0" y="25" fill="#000000" font-family="'Helvetica-Bold'" font-size="2.4"></tspan>
    </text>
    <rect x="-136.5" y="58" display="inline" fill="none" width="35" height="32.5" />
    <text transform="matrix(1 0 0 1 -136.5 60.1299)" display="inline">
      <tspan x="0" y="0" fill="#000000" font-family="'Helvetica-Bold'" font-size="3"></tspan>
      <tspan x="0" y="5" fill="#000000" font-family="'Helvetica'" font-size="2.4"></tspan>
      <tspan x="0" y="8.5" fill="#000000" font-family="'Helvetica'" font-size="2.4"></tspan>
      <tspan x="0" y="13.5" fill="#000000" font-family="'Helvetica'" font-size="2.4"></tspan>
      <tspan x="0" y="16.5" fill="#000000" font-family="'Helvetica'" font-size="2.4"></tspan>
    </text>
    <rect x="-94" y="58" display="inline" fill="none" width="35" height="32.5" />
    <text transform="matrix(1 0 0 1 -94 60.1299)" display="inline">
      <tspan x="0" y="0" fill="#000000" font-family="'Helvetica-Bold'" font-size="3"></tspan>
      <tspan x="0" y="5" fill="#000000" font-family="'Helvetica'" font-size="2.4"></tspan>
      <tspan x="0" y="8" fill="#000000" font-family="'Helvetica'" font-size="2.4"></tspan>
    </text>
    <rect x="-50" y="58" display="inline" fill="none" width="35" height="32.5" />
    <text transform="matrix(1 0 0 1 -50 60.1299)" display="inline">
      <tspan x="0" y="0" fill="#000000" font-family="'Helvetica-Bold'" font-size="3"></tspan>
      <tspan x="0" y="5" fill="#000000" font-family="'Helvetica'" font-size="2.4"></tspan>
      <tspan x="0" y="8" fill="#000000" font-family="'Helvetica'" font-size="2.4"></tspan>
    </text>
    <text transform="matrix(1.0074 0 0 1 -125.542 30.5933)" display="inline" fill="#000000" font-family="'Helvetica'" font-size="2.5731"></text>
    <text transform="matrix(1.0074 0 0 1 -41 39)" display="inline" fill="#000000" font-family="'Helvetica-Bold'" font-size="5.1462"></text>
    <rect x="-126.514" y="34.815" display="inline" fill="#000000" width="10.261" height="10.185" />
    <rect x="-126.477" y="31.766" display="inline" fill="#000000" width="0.522" height="2.337" />
    <rect x="-116.813" y="31.766" display="inline" fill="#000000" width="0.523" height="2.337" />
    <rect x="-127" y="32.337" display="inline" fill="#000000" width="11.233" height="0.572" />
    <g display="inline">
      <rect x="-83.805" y="33.844" fill="#000000" width="10.305" height="10.156" />
      <rect x="-76.809" y="28.707" fill="#000000" width="3.308" height="3.261" />
    </g>
    <rect x="-178.5" y="22.5" display="inline" fill="#000000" stroke="#FFFFFF" stroke-miterlimit="10" width="30" height="30" />
    <rect x="-136.5" y="22.5" display="inline" fill="#000000" stroke="#FFFFFF" stroke-miterlimit="10" width="30" height="30" />
    <rect x="-93.5" y="22.5" display="inline" fill="#000000" stroke="#FFFFFF" stroke-miterlimit="10" width="30" height="30" />
    <rect x="-49.5" y="22.5" display="inline" fill="#000000" stroke="#FFFFFF" stroke-miterlimit="10" width="30" height="30" />
  </g>
  <g>
    <g>
      <g>
        <path d="M50,0C22.386,0,0,22.386,0,50s22.386,50,50,50s50-22.386,50-50S77.614,0,50,0z M50,90c-22.091,0-40-17.908-40-40     c0-22.091,17.909-40,40-40c22.092,0,40,17.909,40,40C90,72.092,72.092,90,50,90z" />
      </g>
    </g>
    <path d="M54,50c0,3.313-2.238,6-5,6l0,0c-2.762,0-5-2.687-5-6V20c0-3.313,2.238-6,5-6l0,0c2.762,0,5,2.687,5,6V50z" />
    <path d="M47.096,56.16c-2.812-1.753-3.834-5.191-2.283-7.681l0,0c1.552-2.49,5.089-3.087,7.901-1.335l25.462,15.865   c2.812,1.753,3.834,5.192,2.283,7.682l0,0c-1.551,2.489-5.089,3.087-7.901,1.335L47.096,56.16z" />
  </g>
</svg>
