<svg version="1.1" id="codepen-circle-icon" class="codepen circle icon" xmlns="http://www.w3.org/2000/svg" xmlns:xlink="http://www.w3.org/1999/xlink" x="0px" y="0px" viewBox="0 0 32 32" enable-background="new 0 0 32 32" xml:space="preserve">
    <polygon points="9.4,14.8 9.4,17.2 11.1,16 " />
    <polygon points="9.9,18.4 15.3,22 15.3,18.8 12.3,16.8 " />
    <polygon points="22.1,13.6 16.7,10 16.7,13.2 19.7,15.2 " />
    <polygon points="16,14.4 13.6,16 16,17.6 18.4,16 " />
    <polygon points="15.3,13.2 15.3,10 9.9,13.6 12.3,15.2 " />
    <polygon points="16.7,18.8 16.7,22 22.1,18.4 19.7,16.8 " />
    <path d="M16,0C7.2,0,0,7.2,0,16c0,8.8,7.2,16,16,16s16-7.2,16-16C32,7.2,24.8,0,16,0z M24,18.4
	C24,18.5,24,18.5,24,18.4c0,0.1,0,0.1,0,0.1c0,0,0,0,0,0.1c0,0,0,0,0,0c0,0,0,0,0,0.1c0,0,0,0,0,0c0,0,0,0,0,0c0,0,0,0,0,0
	c0,0,0,0,0,0c0,0,0,0,0,0c0,0,0,0,0,0c0,0,0,0,0,0c0,0,0,0,0,0c0,0,0,0,0,0c0,0,0,0,0,0l-7.3,4.9C16.3,24,16.1,24,16,24
	c-0.1,0-0.3,0-0.4-0.1L8.3,19c0,0,0,0,0,0c0,0,0,0,0,0c0,0,0,0,0,0c0,0,0,0,0,0c0,0,0,0,0,0c0,0,0,0,0,0c0,0,0,0,0,0c0,0,0,0,0,0
	c0,0,0,0,0,0c0,0,0,0,0,0c0,0,0,0,0-0.1c0,0,0,0,0,0c0,0,0,0,0-0.1c0,0,0,0,0,0c0,0,0-0.1,0-0.1v-4.9c0,0,0-0.1,0-0.1c0,0,0,0,0,0
	c0,0,0,0,0-0.1c0,0,0,0,0,0c0,0,0,0,0-0.1c0,0,0,0,0,0c0,0,0,0,0,0c0,0,0,0,0,0c0,0,0,0,0,0c0,0,0,0,0,0c0,0,0,0,0,0c0,0,0,0,0,0
	c0,0,0,0,0,0c0,0,0,0,0,0c0,0,0,0,0,0l7.3-4.9c0.2-0.2,0.5-0.2,0.8,0l7.3,4.9c0,0,0,0,0,0c0,0,0,0,0,0c0,0,0,0,0,0c0,0,0,0,0,0
	c0,0,0,0,0,0c0,0,0,0,0,0c0,0,0,0,0,0c0,0,0,0,0,0c0,0,0,0,0,0c0,0,0,0,0,0c0,0,0,0,0,0.1c0,0,0,0,0,0c0,0,0,0,0,0.1c0,0,0,0,0,0
	c0,0,0,0.1,0,0.1V18.4z" />
    <polygon points="22.6,17.2 22.6,14.8 20.9,16 " />
</svg>
