<?xml version="1.0" encoding="utf-8"?>
<!-- Generator: Adobe Illustrator 19.1.0, SVG Export Plug-In . SVG Version: 6.00 Build 0)  -->
<svg version="1.1"
	 id="css-icon" class="tutorial-icon" xmlns:cc="http://creativecommons.org/ns#" xmlns:svg="http://www.w3.org/2000/svg" xmlns:sodipodi="http://sodipodi.sourceforge.net/DTD/sodipodi-0.dtd" xmlns:rdf="http://www.w3.org/1999/02/22-rdf-syntax-ns#" xmlns:dc="http://purl.org/dc/elements/1.1/" xmlns:inkscape="http://www.inkscape.org/namespaces/inkscape" sodipodi:docname="htmlcss.svg" inkscape:version="0.48.3.1 r9886"
	 xmlns="http://www.w3.org/2000/svg" xmlns:xlink="http://www.w3.org/1999/xlink" x="0px" y="0px" viewBox="146 94.6 362.7 411.4"
	 style="enable-background:new 146 94.6 362.7 411.4;" xml:space="preserve">
<style type="text/css">
	.stcss0{fill:#264DE4;}
	.stcss1{fill:#2965F1;}
	.stcss2{fill:#EBEBEB;}
	.stcss3{fill:#FFFFFF;}
</style>
<sodipodi:namedview  id="base" borderopacity="1.0" fit-margin-left="0" pagecolor="#ffffff" inkscape:cy="244.10462" inkscape:cx="-276.49014" bordercolor="#666666" inkscape:zoom="0.35" showgrid="false" fit-margin-top="0" inkscape:window-maximized="1" inkscape:window-y="31" inkscape:window-x="0" inkscape:window-height="938" inkscape:window-width="1280" inkscape:current-layer="layer1" inkscape:document-units="px" inkscape:pageopacity="0.0" fit-margin-right="0" fit-margin-bottom="0" inkscape:pageshadow="2">
	</sodipodi:namedview>
<g id="layer1" transform="translate(-170.06157,-270.18109)" inkscape:label="Calque 1" inkscape:groupmode="layer">
	<g id="g3013" transform="translate(95.428571,270.18109)">
		<polygon id="polygon2989" class="stcss0" points="401.8,506 253.6,464.9 220.6,94.6 583.4,94.6 550.3,464.8 		"/>
		<polygon id="polygon2991" class="stcss1" points="522,441.2 550.3,124.9 402,124.9 402,474.5 		"/>
		<polygon id="polygon2993" class="stcss2" points="296.3,262.2 300.4,307.6 402,307.6 402,262.2 		"/>
		<polygon id="polygon2995" class="stcss2" points="288.1,170.3 292.3,215.7 402,215.7 402,170.3 401.8,170.3 		"/>
		<polygon id="polygon2997" class="stcss2" points="402,380.2 401.8,380.2 351.2,366.5 348,330.3 323.4,330.3 302.4,330.3 308.8,401.6 
			401.8,427.5 402,427.4 		"/>
		<polygon id="polygon3005" class="stcss3" points="507.4,262.2 515.6,170.3 401.8,170.3 401.8,215.7 465.8,215.7 461.7,262.2 
			401.8,262.2 401.8,307.6 457.8,307.6 452.5,366.5 401.8,380.2 401.8,427.4 494.9,401.6 495.6,394 506.3,274.4 		"/>
	</g>
</g>
</svg>
