<svg version="1.1" id="dropbox-circle-icon" class="dropbox cirlce icon" xmlns="http://www.w3.org/2000/svg" xmlns:xlink="http://www.w3.org/1999/xlink" x="0px" y="0px" viewBox="0 0 32 32" enable-background="new 0 0 32 32" xml:space="preserve">
<path d="M16,0C7.2,0,0,7.2,0,16c0,8.8,7.2,16,16,16s16-7.2,16-16C32,7.2,24.8,0,16,0z M20.7,20.6L16,23.4l-4.7-2.8
	v-1l1.4,0.9l3.3-2.7l3.3,2.7l1.4-0.9V20.6z M24,16.8l-4.7,3.1L16,17.2l-3.3,2.7L8,16.8l3.3-2.6L8,11.6l4.7-3.1l3.3,2.7l3.3-2.7
	l4.7,3.1l-3.3,2.6L24,16.8z"/>
<polygon points="11.3,14.2 16,17.2 20.7,14.2 16,11.3 "/>
</svg>
