<svg height="67px" id="flickr-icon" class="flickr icon" style="enable-background:new 0 0 67 67;" version="1.1" viewBox="0 0 67 67" width="67px" xml:space="preserve" xmlns="http://www.w3.org/2000/svg" xmlns:xlink="http://www.w3.org/1999/xlink">
    <path d="M42.5,40c-3.037,0-5.5-2.462-5.5-5.5s2.463-5.5,5.5-5.5  s5.5,2.462,5.5,5.5S45.537,40,42.5,40z M33,34.5c0-3.59-2.91-6.5-6.5-6.5S20,30.91,20,34.5s2.91,6.5,6.5,6.5S33,38.09,33,34.5z   M42.5,28c-3.59,0-6.5,2.91-6.5,6.5s2.91,6.5,6.5,6.5s6.5-2.91,6.5-6.5S46.09,28,42.5,28z M34,64C17.432,64,4,50.568,4,34  C4,17.431,17.432,4,34,4s30,13.431,30,30C64,50.568,50.568,64,34,64z" style="fill-rule:evenodd;clip-rule:evenodd;" />
</svg>
