<svg id="flickr-square-icon" class="flickr square icon" style="enable-background:new 0 0 67 67;" version="1.1" viewBox="0 0 67 67" xml:space="preserve" xmlns="http://www.w3.org/2000/svg" xmlns:xlink="http://www.w3.org/1999/xlink">
    <path d="M41.5,40c-3.037,0-5.5-2.463-5.5-5.5s2.463-5.5,5.5-5.5  s5.5,2.463,5.5,5.5S44.537,40,41.5,40z M41.5,28c-3.59,0-6.5,2.91-6.5,6.5s2.91,6.5,6.5,6.5s6.5-2.91,6.5-6.5S45.09,28,41.5,28z   M32,34.5c0-3.59-2.91-6.5-6.5-6.5S19,30.91,19,34.5s2.91,6.5,6.5,6.5S32,38.09,32,34.5z M3,4h60v60H3V4z" />
</svg>
