<svg version="1.1" id="github-circle-icon" class="github circle icon" xmlns="http://www.w3.org/2000/svg" xmlns:xlink="http://www.w3.org/1999/xlink" x="0px" y="0px"
	 width="32px" height="32px" viewBox="0 0 32 32" enable-background="new 0 0 32 32" xml:space="preserve">
<path fill="#444444" d="M16,0C7.2,0,0,7.2,0,16c0,8.8,7.2,16,16,16s16-7.2,16-16C32,7.2,24.8,0,16,0z M18.3,22.4
	c0,0-1.1,0.1-2.3,0.1s-2.3-0.1-2.3-0.1C10.9,22.1,8,21,8,16.2c0-1.4,0.5-2.5,1.3-3.4c-0.1-0.3-0.6-1.6,0.1-3.3c0,0,1.1-0.3,3.4,1.3
	c1-0.3,2.1-0.4,3.1-0.4c1.1,0,2.1,0.1,3.1,0.4c2.4-1.6,3.4-1.3,3.4-1.3c0.7,1.7,0.3,3,0.1,3.3c0.8,0.9,1.3,2,1.3,3.4
	C24,21,21.1,22.1,18.3,22.4z"/>
</svg>
