<svg version="1.1" xmlns="http://www.w3.org/2000/svg" xmlns:xlink="http://www.w3.org/1999/xlink" x="0px" y="0px"
	 id="git-icon" class="tutorial-icon" viewBox="0 0 319.7 273.5" xml:space="preserve">
<style type="text/css">
	.gitst0{fill:#201F1F;}
	.gitst1{fill:#9BD9EF;}
	.gitst2{fill:#7CB9E5;}
	.gitst3{fill:#9CD9EF;}
	.gitst4{fill:#030303;}
	.gitst5{fill:#F3C9B0;}
	.gitst6{fill:#C39A85;}
	.gitst7{fill:#FEFEFE;}
	.gitst8{fill:#FCFCFC;}
	.gitst9{fill:#98D4E9;}
	.gitst10{fill:#99D5EB;}
	.gitst11{fill:#99D6EB;}
	.gitst12{fill:#98D4EA;}
	.gitst13{fill:#97D3E8;}
	.gitst14{fill:#95CFE4;}
	.gitst15{fill:#AC5C51;}
	.gitst16{fill:#AB5C51;}
	.gitst17{fill:#FDFCFC;}
	.gitst18{fill:#FDFBFB;}
</style>
<g>
	<path class="gitst0" d="M133.6,155.7c-4.1-0.7-8.2-1.3-12.3-2.1c-10.7-2.1-21-5.2-30.3-11c-7.9-4.8-14.2-11.1-18.8-19.2
		c-0.6-1.1-1.3-1.4-2.5-1.4c-22.8,1-45.4,3.6-67.5,9.6c-0.5,0.1-1.3,0.8-1.6-0.2c-0.3-1,0.8-0.8,1.3-1c13.8-3.8,27.8-6.2,41.9-7.8
		c8.3-0.9,16.6-1.6,24.9-1.8c1.9,0,1.6-0.6,1.2-2.1c-0.9-3.2-2.7-4-6-4c-20.7-0.4-41.2,0.6-61.5,4.4c-0.8,0.1-2.1,1-2.4-0.1
		c-0.3-1.2,1.3-0.9,2.1-1c20.3-3.8,40.7-4.9,61.3-4.4c1.3,0,2.7,0,4.2,0c-1.1-3.9-2.4-7.8-3-11.8c-2-13.3-3.1-26.6,1-39.8
		c2.4-7.6,6.2-14.3,11.5-20.3c1-1.1,1.3-2,0.8-3.5c-4-12.6-2.7-24.9,1.8-37c0.5-1.3,1.4-1.2,2.4-1.3c5.1-0.2,10,1,14.8,2.7
		c8.2,3,15.8,7.2,23,12.1c1.1,0.7,2,0.9,3.3,0.6c22.6-5.7,45.4-6,68.1-0.9c1.5,0.3,2.5,0.1,3.7-0.7c8.4-5.5,17.2-10.3,27.1-12.8
		c3.1-0.8,6.3-1.2,9.5-1.1c1.2,0.1,1.9,0.5,2.3,1.7c4.1,11.2,5.4,22.7,2.3,34.4c-0.3,1.1,0,1.8,0.7,2.6
		c11.3,11.9,16.5,26.1,16.4,42.5c-0.1,10.9-0.6,21.8-3.4,32.5c1.8,0,3.5,0,5.2,0c20.9-0.6,41.6,0.5,62.2,4.4c0.2,0,0.5,0,0.6,0.1
		c0.5,0.3,1.8-0.2,1.6,0.9c-0.2,1.1-1.2,0.4-1.8,0.3c-21.7-4-43.6-5.1-65.6-4.4c-2.1,0.1-2.9,0.7-3.5,2.6c-0.9,3.2-1,3.2,2.4,3.4
		c22.4,0.9,44.6,3.6,66.3,9.5c0.4,0.1,0.8,0.2,1.2,0.4c0.3,0.1,0.6,0.2,0.4,0.6c-0.1,0.3-0.2,0.7-0.7,0.6c-0.9-0.2-1.8-0.4-2.7-0.7
		c-14.4-3.9-29.1-6.2-43.9-7.7c-7.6-0.8-15.2-1.2-22.8-1.5c-0.9,0-1.7-0.3-2.3,0.9c-6.2,13.6-17.3,21.5-31,26.3
		c-9.2,3.3-18.7,5-28.3,6c-0.5,0.1-1-0.1-1.4,0.4c-0.8,0.8-1.8,0.7-2.8,0.7c-15,0-30,0-45,0C136.7,156.4,135.1,156.4,133.6,155.7z"
		/>
	<path class="gitst0" d="M121.4,213.5c0.2-7.4,0.3-14.8,0-22.3c-0.3-5.5-0.5-11.1,0.4-16.6c0.1-0.4,0.3-0.7,0.5-0.9
		c1.3-4.2,2.7-8.4,5.3-12c0.2-0.3,0.4-0.5,0.7-0.8c3.9-2.1,8.2-2.3,12.4-2.8c5.4-0.6,10.8-0.2,16.2-0.5c6-0.4,11.9-0.1,17.8,0.6
		c6.8,0.7,13,3,17.8,8.2c1.9,2,3.1,4.5,4.7,6.8c1,3.4,1,6.9,1,10.3c0.1,9.1,0,18.2,0,27.3c0,0.8,0.1,1.6,0.1,2.3
		c0.7,0.7,0.6,1.6,0.6,2.4c0,1.9-0.1,3.8,0,5.7c0.3,5,2.5,8.9,6.8,11.6c1,0.6,2.2,1,3.1,1.9c1.7,1.5,1.9,3,0.7,4.8
		c-2.3,1.8-5,1.2-7.6,1c-3-0.2-6-0.8-8.8-2.1c-7.2-3-10.6-8.5-10.7-16.2c-0.1-3.7,0-7.4,0-11.1c-0.1-6.5,0-12.9-0.1-19.4
		c0-3.3-0.5-6.5-1.6-9.6c-0.3-0.9-0.6-1.9-1.7-2.7c-0.1,10.6,0,21-0.1,31.4c0,7.4,0,14.8,0,22.2c0,4.8,1.2,9.2,5.4,12.2
		c2.1,3.3,1.5,5.3-2.1,6.8c-0.6,0.2-1.2,0.2-1.7,0.2c-5.1-0.6-9.5-2.7-13.5-5.7c-3.8-3.5-5.6-7.8-5.6-13.1
		c0.1-18.3,0.2-36.6,0.1-54.9c0-1.1,0.1-2.1-0.1-3.2c-1-1.9-1.5-1.9-2.9-0.3c-0.2,1-0.1,2-0.1,3c-0.1,18.4,0.1,36.9,0.1,55.3
		c0,5.2-1.8,9.6-5.6,13.2c-4.6,3.5-9.6,5.9-15.5,5.6c-0.2,0-0.5-0.1-0.7-0.1c-3.1-1.9-3.3-3.7-0.9-6.9c4.2-2.6,5.2-6.5,5.1-11.2
		c-0.1-7.7-0.1-15.3,0-23c-0.1-10.6,0-21.2-0.1-31.9c-1.2,0.5-1.4,1.5-1.7,2.3c-1.2,3.1-1.6,6.3-1.6,9.6c-0.1,6.8,0.1,13.5,0,20.3
		c0,3.8,0.1,7.7,0,11.5c-0.2,7.5-3.7,12.8-10.7,15.8c-4.8,1.9-9.8,2.5-15,2.1c-1.4-0.4-2.6-1-2.7-2.6c-0.2-1.7,0.8-2.8,2.1-3.6
		c1.2-0.7,2.4-1.2,3.6-1.9c4-2.4,6.1-5.8,6.1-10.5c0-2,0-4,0-6C120.8,215.1,120.7,214.2,121.4,213.5z"/>
	<path class="gitst1" d="M209.4,239.1c0.8-2,0.3-3.6-1.9-4.6c-6.8-3.1-9.5-8.6-9.3-15.8c0.1-1.8,0.1-3.7,0.1-5.5
		c13.5,2.3,26.8,5.3,38.9,12c4.1,2.2,7.9,4.8,10.7,8.6c4.3,5.8,3.9,12.1-1,17.4c-4.8,5.1-10.8,8.3-17.1,10.9
		c-9.8,4.1-20.1,6.5-30.6,8.3c-0.3,0-0.6,0-0.9,0c-0.6-0.6-0.6-1.4-0.6-2.2c0-4.8-0.1-9.5,0-14.3c0.1-5.8,4.2-11.3,9.6-13.4
		C208.2,240.2,208.8,239.7,209.4,239.1z"/>
	<path class="gitst1" d="M121.4,213.5c0.2,3.3,0.3,6.7,0,10c-0.5,4.9-3.4,8.1-7.7,10.2c-0.8,0.4-1.6,0.7-2.3,1.1c-1.2,0.6-2,1.6-2,3
		c0,1.4,1.1,1.8,2.2,2.3c6.5,2.1,10.4,7.6,10.4,14.4c0,4.3,0,8.5,0,12.8c0,0.9,0.2,1.9-0.6,2.6c-14.2-2.5-28.1-5.9-40.4-13.9
		c-2.7-1.8-5.1-3.9-7-6.5c-4.1-5.9-3.6-11.9,1.3-17.1c4.5-4.9,10.2-7.9,16.2-10.5C101,217.8,111.1,215.3,121.4,213.5z"/>
	<path class="gitst0" d="M120.5,191.3c-17.1,4-34.1,0.9-43.8-16.6c-1.2-2.2-2.5-4.5-3.9-6.6c-2.9-4.8-6.8-8.6-11.9-11
		c-1.8-0.9-3.5-1.8-4.9-3.4c-1.5-1.7-1.2-3.1,0.9-3.9c3.4-1.3,6.9-0.8,10.2,0.3c6.5,2.2,11.3,6.5,14.9,12.1c2,3.1,4,6.2,6.8,8.7
		c8.5,7.5,18.1,8.1,28.4,4.7c1.3-0.4,2.7-1,4-1.5c0.7,0.9,0.3,1.7-0.1,2.5c-2.8,1.5-2.8,1.5-0.4,3.7c0.1,0.1,0.1,0.2,0.2,0.4
		c0.4,3,0.1,6,0.2,9C121.1,190.3,120.8,190.8,120.5,191.3z"/>
	<path class="gitst2" d="M209.4,239.1c-0.4,1.2-1.4,1.7-2.4,2.2c-5.6,2.6-8.3,7.1-8.6,13.1c-0.2,5.3-0.1,10.7-0.1,16
		c-4.8,0.8-9.6,1.6-14.5,1.8c-1.8,0.2-1.5-1.2-1.5-2.1c-0.1-3.3,0-6.5-0.1-9.8c0-2.9,0.1-5.8-0.2-8.7c3.3-1.5,3.7-2.7,2.1-5.9
		c1.9-3.9,5.4-5.9,9.1-7.7c3.9,1.4,7.9,2.2,12,2.2C206.7,240.1,208.1,240,209.4,239.1z"/>
	<path class="gitst2" d="M121.3,270c0-5.2,0.1-10.4,0-15.5c-0.1-6.4-3.2-10.8-8.9-13.5c-0.4-0.2-0.7-0.4-0.9-0.8
		c5.1,0.2,10.2-0.3,15-2.1c3.9,1.5,7.2,3.8,9.3,7.6c-1.8,3.1-1.6,4.3,1,6c0.7,0.7,0.7,1.7,0.7,2.6c0,5.1,0,10.2,0,15.3
		c0,0.9,0,1.9-0.7,2.6C131.5,271.7,126.4,271.1,121.3,270z"/>
	<path class="gitst1" d="M152.1,246.4c4.2-4,5.8-9,5.7-14.8c-0.1-18.3-0.1-36.6-0.1-54.9c0-0.8-0.3-1.7,0.3-2.5c1,1,0.7,2.3,0.7,3.4
		c0,9.6,0,19.2,0,28.8c0,0.9-0.5,2.6,0.9,2.6c1.6,0,1.1-1.7,1.1-2.7c0.1-9.5,0-18.9,0-28.4c0-1.2-0.3-2.5,0.8-3.4
		c0.6,0.8,0.3,1.7,0.3,2.5c0,18.3,0,36.5-0.2,54.8c-0.1,5.8,1.5,10.6,5.8,14.5c0.3,1-0.3,1.8-0.8,2.5c-2.6,4-3.6,8.4-3.8,13.1
		c-0.1,2.9,0,5.8,0,8.7c0,0.9,0.1,1.9-0.6,2.6c-3.7-0.2-7.5,0.5-11.2-0.3c1.1-1.1,2.6-0.6,3.9-0.6c1.3,0,2.1-0.4,2-1.8
		c-0.5-4.9,0-9.8-1.1-14.6c-0.6-2.6-1.6-5-3-7.2C152.5,248,151.9,247.4,152.1,246.4z"/>
	<path class="gitst2" d="M162.4,273.4c0.2-5.9-0.6-11.8,0.8-17.6c0.8-3.5,2.6-6.4,4.4-9.4c3.8,2.8,8.1,4.6,12.8,5.3
		c0.4,0.5,0.3,1.1,0.1,1.6c-1.8,5.2-1.7,10.6-1.6,16c0,1.1,0.2,2.3-0.6,3.3C173,273.2,167.7,273.5,162.4,273.4z"/>
	<path class="gitst2" d="M152.1,246.4c3.6,4.6,5.2,9.8,5.2,15.6c0,3,0.2,6.1,0.4,9.1c0.1,1.4-0.3,2-1.8,1.9c-1.6-0.1-3.1,0-4.7,0
		c-3.3,0-6.5-0.1-9.8-0.5c-0.8-0.9-0.6-2-0.7-3c-0.1-3.5,0.2-7.1-0.2-10.6c-0.4-2.8-0.7-5.5-3.4-7.2
		C142.8,251.8,147.6,249.6,152.1,246.4z"/>
	<path d="M197.1,173.2c-0.5,1.5-0.7,0.1-0.8-0.1c-2-3.5-4.2-6.8-7.5-9.1c-4.3-3.1-9.2-4.3-14.2-5.2c-3.8-0.7-7.7-0.7-11.4-0.6
		c-6.6,0.2-13.2-0.1-19.8,0.5c-3.7,0.4-7.5,0.7-11.2,1.4c-1.3,0.2-2.5,1.3-4,0.9c1.5-2.1,3.3-3.8,5.4-5.2c1.3-0.8,2.6,0,3.9,0
		c16.1,0,32.3,0,48.4-0.1C191.9,160.1,195.8,165.9,197.1,173.2z"/>
	<path class="gitst1" d="M178.3,272.6c0.1-5.5-0.6-11,0.8-16.5c0.4-1.5,0.9-3,1.3-4.5c0.5,0,1.1-0.1,1.6-0.1c1.3,0.2,0.9,1.2,0.9,2
		c0,5.5,0,11,0,16.5c0,0.8-0.4,1.8,0.9,2.1C182,272.9,180.1,272.4,178.3,272.6z"/>
	<path class="gitst1" d="M137.2,251.7c2.5,0.1,3,1.9,3.5,3.9c1.2,4.8,0.7,9.7,0.8,14.6c0,0.8,0,1.6,0,2.3c-1.6-0.1-3.2-0.3-4.8-0.4
		c0-6.8,0-13.6,0-20.4C136.9,251.6,137,251.6,137.2,251.7z"/>
	<path class="gitst3" d="M58.7,157c0.8,2.8,1.5,5.6,2.3,8.4c0.4,1.4,0.2,2.7-1,3.6c-0.8,0.7-1.9,0.6-2.8,0.1c-1.4-0.8-1.7-2.2-1.3-3.5
		c0.7-2.9,1.6-5.7,2.4-8.5C58.5,157,58.6,157,58.7,157z"/>
	<path class="gitst4" d="M120.5,191.3c0-3.7,0-7.4,0-11.2c-0.8-1.2-0.5-2.3,0.4-3.3c0.1-0.9,0.3-1.8,0.4-2.7c0.1-0.5,0.5-0.4,0.9-0.4
		c-0.6,5.3-0.4,10.6-0.5,15.9c0,0.5-0.3,1.1-0.4,1.6C121,191.3,120.8,191.3,120.5,191.3z"/>
	<path class="gitst5" d="M230.4,103.1c0.4,8.1-0.6,16.1-4,23.6c-5.1,11.3-14.7,16.5-26.2,19.2c-8.9,2.1-18,2.6-27.1,2.8
		c-15.2,0.4-30.3,0.5-45.4-1.9c-7.5-1.2-14.7-3.1-21.4-6.8c-10.8-5.9-16.6-15.2-18.3-27.2c-0.4-3-0.7-6.1-0.4-9.2
		c1-9.6,6-16.8,13.2-22.8c4.9-4,10.8-5.3,17-5.6c8-0.4,15.9,0.4,23.9,1.1c10.1,0.9,20.3,1.3,30.5,0.3c9.3-0.9,18.7-1.9,28.1-1.4
		c7.5,0.3,14.3,2.6,19.7,8C225.5,88.7,229.6,95.1,230.4,103.1z"/>
	<path class="gitst6" d="M230.4,103.1c-1.1-4.6-2.7-9.1-5.4-13.1c-4.8-6.9-10.6-12.2-19.3-13.7c-6.2-1.1-12.5-0.8-18.7-0.4
		c-3.7,0.3-7.5,0.8-11.2,0.9c-6.5,0.3-12.9,1.2-19.4,0.8c-7-0.4-14-0.9-21-1.5c-8.1-0.7-16.2-1.3-24.2,0.3
		c-7.3,1.5-12.6,5.9-17,11.7c-3.4,4.5-5.7,9.6-6.7,15.2c-0.1-7,2.9-12.9,7-18.3c6.5-8.8,15.4-12.4,26.1-12.5
		c9.1-0.1,18.2,0.7,27.3,1.2c7.8,0.4,15.7,0.4,23.5-0.1c9.7-0.6,19.3-1.5,29-1c14,0.8,27,12.3,29.6,26.1
		C230.3,100.3,230.6,101.7,230.4,103.1z"/>
	<path class="gitst1" d="M135.8,245.6c-1.9-1.3-2.9-3.5-4.9-4.8c-1.5-0.9-3.2-1.5-4.4-2.8c7.5-3.4,10.6-9.4,10.3-17.4
		c-0.1-3,0-6.1,0-9.1c1.5-0.7,3-1.2,4.6-0.4c0,8.4,0,16.9,0,25.3C141.4,240.5,139.5,243.6,135.8,245.6z"/>
	<path class="gitst1" d="M193.2,238c-0.7,1.5-2.4,1.6-3.6,2.4c-2.1,1.5-3.7,3.5-5.5,5.3c-4.5-2.4-5.7-6.6-5.8-11.1
		c-0.2-7.9,0-15.8,0-23.6c1.6-0.9,3.1-0.9,4.6,0.4c0,3.8,0,7.5,0.1,11.3C183.1,229.9,186.6,235,193.2,238z"/>
	<path class="gitst7" d="M141.4,211c-1.5,0.1-3.1,0.3-4.6,0.4c0.1-8.5-0.5-17.1,0.4-25.6c0.2-2.1,0.8-4.2,1.8-6.1c0.5-1,1-2,2.4-2.6
		C141.4,188.5,141.4,199.8,141.4,211z"/>
	<path class="gitst7" d="M182.9,211.3c-1.5-0.5-3-0.4-4.6-0.4c0-11,0-22.1,0-33.3c1.2,0.3,1.6,1.4,2.1,2.2c1.7,3.1,2.4,6.4,2.5,9.9
		C183,196.9,182.9,204.1,182.9,211.3z"/>
	<path class="gitst8" d="M161.6,174.6c0,11.2-0.1,22.3-0.1,33.5c0,1.1,0.2,2-1.5,2.1c-1.7,0.2-2-0.3-2-1.9c0.1-11.4,0-22.8,0-34.1
		C159.5,172.7,160.6,172.8,161.6,174.6z"/>
	<path class="gitst9" d="M91.8,175.8c1.4,0.1,2.6,0.8,2.8,2.5c0.1,1-0.7,1.5-1.7,1.5c-1.5,0-3.3-1.4-3.2-2.6
		C89.9,176,90.7,175.7,91.8,175.8z"/>
	<path class="gitst10" d="M83,170.8c0-0.9,0.4-1.6,1.5-1.5c1.6,0.1,2.6,1.2,2.9,2.7c0.2,1-0.3,1.7-1.4,1.7
		C84.7,173.8,83.1,172.3,83,170.8z"/>
	<path class="gitst11" d="M100.8,178.7c1.4,0.1,2.8,0.4,2.9,2c0.1,1.3-1.1,1.7-2.3,1.6c-1.4-0.1-2.7-0.4-2.7-2.1
		C98.6,178.9,99.8,178.8,100.8,178.7z"/>
	<path class="gitst11" d="M110.9,182.5c-1.1-0.1-2.4-0.2-2.5-1.7c-0.1-1.5,1.2-1.8,2.4-1.9c1.3-0.1,2.6,0.3,2.7,1.8
		C113.5,182.1,112.2,182.3,110.9,182.5z"/>
	<path class="gitst12" d="M81.4,165.1c-0.1,0.8-0.4,1.4-1.4,1.4c-1.2,0-2.6-1.6-2.5-2.9c0.1-0.9,0.4-1.5,1.4-1.5
		C80.1,162.1,81.5,163.7,81.4,165.1z"/>
	<path class="gitst13" d="M76,158.5c0,1-0.6,1.4-1.4,1.3c-1.3-0.1-2.1-0.9-2.2-2.2c-0.1-0.7,0.4-1.3,1.2-1.2
		C74.8,156.4,75.6,157.2,76,158.5z"/>
	<path class="gitst13" d="M120.9,176.8c-0.1,1.1-0.3,2.2-0.4,3.3c-1.3,0.1-2.7-0.1-2.6-1.7C118,176.8,119.3,176.4,120.9,176.8z"/>
	<path class="gitst14" d="M68.3,152.7c1,0.1,1.8,0.5,2,1.5c0.1,0.8-0.5,1.1-1.2,1.1c-1,0-1.8-0.5-2-1.5
		C66.9,152.9,67.6,152.7,68.3,152.7z"/>
	<path class="gitst7" d="M215.1,107.3c-0.2,6.2-1.6,12.3-6.5,17.1c-5.7,5.6-13.4,5-18.3-1.4c-6.7-8.8-6.8-24.5,0.6-33
		c5.6-6.5,13.7-6.5,19.4,1.1C213.8,95.7,214.9,101.2,215.1,107.3z"/>
	<path class="gitst7" d="M135.1,106.4c0.1,6.1-1.1,11.4-4.6,16.1c-5.9,7.8-14.3,7.8-20.3,0c-6.9-9.1-6.2-26.1,2.1-33.7
		c5.8-5.3,12.9-4.2,17.5,1.4C133.7,95,135.3,100.7,135.1,106.4z"/>
	<path class="gitst15" d="M159.2,141.3c-3.8,0-7.1-2.1-8.5-5.4c-0.3-0.8-0.5-1.5,0.4-2c1-0.6,1.5,0.2,1.8,0.9
		c2.5,5.7,10.1,5.6,12.5-0.1c0.3-0.7,0.8-1.3,1.6-0.9c0.9,0.4,0.9,1.1,0.6,2C166.4,139,163,141.3,159.2,141.3z"/>
	<path class="gitst15" d="M162.9,125.9c0,1.9-1.7,3.7-3.6,3.7c-2,0.1-3.8-1.8-3.8-3.8c0-2,1.6-3.7,3.6-3.8
		C161.1,122,162.8,123.8,162.9,125.9z"/>
	<path class="gitst16" d="M188.8,107.2c0-4.3,1-8.3,4-11.6c3.5-3.8,8.5-3.7,11.9,0.2c5,5.7,5.2,16.6,0.2,22.4
		c-3.8,4.4-9.2,4.3-12.8-0.2C189.7,114.8,188.8,111.1,188.8,107.2z"/>
	<path class="gitst16" d="M111.8,107c0-4.3,1.1-8.3,4.1-11.5c3.5-3.6,8.2-3.5,11.6,0.1c5.3,5.6,5.4,17.2,0.1,22.9
		c-3.7,4.1-8.8,4-12.3-0.3C112.7,114.9,111.8,111.1,111.8,107z"/>
	<path class="gitst17" d="M198.1,100.8c-0.2,1.5-1,2.4-2.6,2.4c-1.6-0.1-2.4-1.1-2.3-2.7c0.1-1.5,1.1-2.4,2.5-2.3
		C197.1,98.1,198,99.1,198.1,100.8z"/>
	<path class="gitst18" d="M114.6,100.6c0-1.6,1.3-2.8,2.9-2.7c1.6,0,2.8,1.3,2.8,2.9c0,1.5-1.4,2.8-2.9,2.8
		C115.9,103.5,114.6,102.1,114.6,100.6z"/>
</g>
</svg>
