<svg enable-background="new 0 0 128 128" height="128px" id="googleplus-square-icon" class="googleplus square icon" version="1.1" viewBox="0 0 128 128" width="128px" xml:space="preserve" xmlns="http://www.w3.org/2000/svg" xmlns:xlink="http://www.w3.org/1999/xlink">
    <g>
        <rect height="128" width="128" />
        <g>
            <path d="M49.211,70.991h16.883c-1.94,7.84-7.912,12.213-17.035,12.213c-10.781,0-19.554-8.616-19.554-19.203    c0-10.589,8.773-19.205,19.554-19.205c4.716,0,9.269,1.671,12.821,4.707l8.117-9.162c-5.803-4.958-13.239-7.689-20.937-7.689    c-17.6,0-31.917,14.063-31.917,31.348c0,17.284,14.317,31.347,31.917,31.347c17.995,0,30.083-12.23,30.083-30.428v-6.073H49.211    V70.991z" fill="#FFFFFF" />
            <polygon fill="#FFFFFF" points="117.143,58.741 106.143,58.741 106.143,47.741 98.143,47.741 98.143,58.741 87.143,58.741     87.143,66.741 98.143,66.741 98.143,77.741 106.143,77.741 106.143,66.741 117.143,66.741   " />
        </g>
    </g>
</svg>
