<svg version="1.1" id="googleplus-circle-icon" class="googleplus circle icon" xmlns="http://www.w3.org/2000/svg" xmlns:xlink="http://www.w3.org/1999/xlink" x="0px" y="0px"
	 width="32px" height="32px" viewBox="0 0 32 32" enable-background="new 0 0 32 32" xml:space="preserve">
<path d="M13.6,9.6c-0.3-0.2-0.7-0.3-1.1-0.4c-0.5,0-1,0.2-1.4,0.6c-0.3,0.4-0.5,0.9-0.4,1.4c0,0.7,0.2,1.4,0.6,2.2
	c0.2,0.4,0.5,0.7,0.8,0.9c0.3,0.2,0.7,0.4,1.1,0.4c0.5,0,1-0.2,1.3-0.6c0.2-0.2,0.3-0.5,0.3-0.8c0-0.3,0-0.5,0-0.7
	c0-0.8-0.2-1.5-0.6-2.3C14.2,10.1,13.9,9.8,13.6,9.6z"/>
<path d="M13.5,17.9c-0.1,0-0.4,0-0.8,0c-0.4,0.1-0.8,0.1-1.3,0.3c-0.1,0-0.2,0.1-0.4,0.2c-0.2,0.1-0.4,0.2-0.6,0.4
	c-0.2,0.2-0.3,0.4-0.5,0.6c-0.1,0.2-0.2,0.5-0.2,0.9c0,0.7,0.3,1.3,1,1.7c0.6,0.4,1.4,0.7,2.5,0.7c1,0,1.7-0.2,2.2-0.6
	c0.5-0.4,0.7-0.9,0.7-1.5c0-0.5-0.2-0.9-0.5-1.3c-0.4-0.3-0.9-0.8-1.7-1.3C13.8,17.9,13.7,17.9,13.5,17.9z"/>
<path d="M16,0C7.2,0,0,7.2,0,16c0,8.8,7.2,16,16,16s16-7.2,16-16C32,7.2,24.8,0,16,0z M15.8,9.6
	c0.2,0.2,0.3,0.3,0.4,0.6c0.1,0.2,0.3,0.5,0.4,0.7c0.1,0.3,0.1,0.6,0.1,1c0,0.7-0.2,1.3-0.5,1.7c-0.2,0.2-0.3,0.4-0.5,0.6
	c-0.2,0.2-0.4,0.3-0.6,0.5c-0.1,0.1-0.2,0.3-0.3,0.4c-0.1,0.2-0.2,0.3-0.2,0.6c0,0.2,0.1,0.4,0.2,0.5c0.1,0.1,0.2,0.2,0.3,0.3
	l0.7,0.5c0.4,0.3,0.8,0.7,1.1,1.1c0.3,0.4,0.5,1,0.5,1.6c0,0.9-0.4,1.8-1.3,2.5c-0.9,0.8-2.2,1.1-3.9,1.2c-1.4,0-2.5-0.3-3.2-0.9
	C8.4,22,8,21.4,8,20.6c0-0.4,0.1-0.8,0.3-1.2C8.6,19,9,18.6,9.6,18.3c0.7-0.4,1.3-0.6,2.1-0.7c0.7-0.1,1.3-0.2,1.8-0.2
	c-0.1-0.2-0.3-0.4-0.4-0.6c-0.1-0.2-0.2-0.4-0.2-0.7c0-0.2,0-0.3,0.1-0.4c0-0.1,0.1-0.2,0.1-0.3c-0.2,0-0.4,0-0.6,0
	c-1.1,0-1.9-0.3-2.5-1C9.3,13.7,9,13,9,12.3c0-1,0.4-1.8,1.3-2.6c0.6-0.5,1.2-0.8,1.8-0.9c0.6-0.1,1.2-0.2,1.7-0.2h4l-1.2,0.7h-1.2
	C15.5,9.4,15.6,9.5,15.8,9.6z M24,16.6h-2.3v2.3h-1.1v-2.3h-2.3v-1.1h2.3v-2.3h1.1v2.3H24V16.6z"/>
</svg>
