<svg enable-background="new 0 0 128 128" height="128px" id="instagram-square-icon" class="instagram square icon" version="1.1" viewBox="0 0 128 128" width="128px" xml:space="preserve" xmlns="http://www.w3.org/2000/svg" xmlns:xlink="http://www.w3.org/1999/xlink">
    <g>
        <rect height="128" width="128" />
    </g>
    <g>
        <path d="M97.941,20H30.057C24.524,20,20,24.526,20,30.057v67.886C20,103.475,24.524,108,30.057,108h67.887   c5.531,0,10.057-4.525,10.057-10.057V30.057C108,24.526,103.475,20,97.941,20z M48.429,56.876   c2.737-5.857,8.679-9.917,15.571-9.917c6.893,0,12.833,4.06,15.571,9.917c1.031,2.207,1.611,4.667,1.611,7.264   c0,9.489-7.693,17.181-17.182,17.181c-9.489,0-17.182-7.692-17.182-17.181C46.817,61.543,47.397,59.083,48.429,56.876z    M97.732,95.01c0,1.383-1.131,2.514-2.516,2.514H32.78c-1.383,0-2.514-1.131-2.514-2.514V56.876h7.47   c-0.643,2.337-0.975,4.774-0.975,7.264c0,7.276,2.833,14.116,7.979,19.26c5.145,5.146,11.985,7.977,19.261,7.977   s14.116-2.832,19.26-7.977c5.145-5.146,7.979-11.984,7.979-19.261c0-2.489-0.332-4.927-0.975-7.264h7.469V95.01L97.732,95.01z    M97.732,43.886c0,1.844-1.508,3.354-3.354,3.354H84.322c-1.844,0-3.354-1.509-3.354-3.354V33.829c0-1.844,1.51-3.353,3.354-3.353   h10.059c1.844,0,3.352,1.509,3.352,3.353V43.886L97.732,43.886z" fill="#FFFFFF" />
    </g>
</svg>
