<svg id="linkedin-square-icon" class="linkedin square icon" style="enable-background:new 0 0 67 67;" version="1.1" viewBox="0 0 67 67" xml:space="preserve" xmlns="http://www.w3.org/2000/svg" xmlns:xlink="http://www.w3.org/1999/xlink">
    <path d="M49.837,48.137V36.425c0-6.274-3.35-9.194-7.816-9.194  c-3.604,0-5.219,1.982-6.119,3.373V27.71h-6.79c0.09,1.917,0,20.428,0,20.428h6.79V36.729c0-0.61,0.044-1.22,0.224-1.657  c0.49-1.219,1.607-2.482,3.482-2.482c2.458,0,3.44,1.873,3.44,4.618v10.929H49.837z M21.959,24.922c2.367,0,3.842-1.569,3.842-3.531  c-0.044-2.003-1.475-3.528-3.797-3.528s-3.841,1.525-3.841,3.528c0,1.962,1.474,3.531,3.753,3.531H21.959z M25.354,48.137V27.71  h-6.789v20.427H25.354z M3,4h60v60H3V4z"  />
</svg>
