<svg xmlns="http://www.w3.org/2000/svg" xmlns:xlink="http://www.w3.org/1999/xlink" version="1.1" id="next-icon" x="0px" y="0px" viewBox="0 0 612 612" style="enable-background:new 0 0 612 612;" xml:space="preserve" class="next icon">
  <g>
    <g>
      <path stroke-width="5" class="arrow-icons" d="M587.572,186.881c-32.266-75.225-87.096-129.934-162.956-162.285C386.711,8.427,346.985,0.168,305.497,0.168    c-41.488,0-80.914,8.181-118.784,24.428C111.488,56.861,56.415,111.535,24.092,186.881C7.895,224.629,0,264.176,0,305.664    c0,41.496,7.895,81.371,24.092,119.127c32.323,75.346,87.396,130.348,162.621,162.621c37.87,16.247,77.295,24.42,118.784,24.42    c41.489,0,81.214-8.259,119.12-24.42c75.86-32.352,130.69-87.403,162.956-162.621C603.819,386.914,612,347.16,612,305.664    C612,264.176,603.819,224.757,587.572,186.881z M538.717,440.853c-24.014,41.195-56.922,73.876-98.375,98.039    c-41.196,24.021-86.325,36.135-134.845,36.135c-36.47,0-71.27-7.024-104.399-21.415c-33.123-14.384-61.733-33.294-85.662-57.215    c-23.921-23.928-42.966-52.811-57.214-85.997c-14.198-33.065-21.08-68.258-21.08-104.735c0-48.52,11.921-93.428,35.799-134.509    c23.971-41.231,56.886-73.947,98.04-98.04c41.16-24.092,85.997-36.142,134.517-36.142s93.649,12.121,134.845,36.142    c41.453,24.164,74.283,56.879,98.375,98.04c24.092,41.153,36.142,85.99,36.142,134.509    C574.858,354.185,562.888,399.399,538.717,440.853z"></path>
      <path class="arrow-icons" d="M270.026,128.995c-7.603-7.795-19.402-7.367-26.098-0.671c-7.695,7.695-7.274,18.981-0.671,25.763l149.571,153.591    L243.257,457.242c-7.21,7.217-6.689,19.074,0,25.77c3.683,3.677,8.366,5.689,13.72,5.689c5.019,0,9.366-2.021,13.049-5.689    l162.286-161.621c7.23-7.195,6.609-19.324,0-26.098L270.026,128.995z"></path>
    </g>
  </g>
</svg>
