<svg xmlns="http://www.w3.org/2000/svg" id="pdf-icon" xmlns:xlink="http://www.w3.org/1999/xlink" version="1.1" x="0px" y="0px" viewBox="0 0 100 125" enable-background="new 0 0 100 100" xml:space="preserve" width="40px" height="40px">
  <path d="M94.084,45.167H71.057V10.414c0-1.144-0.928-2.071-2.071-2.071H27.562c-0.278,0-0.547,0.056-0.798,0.161  c-0.251,0.105-0.477,0.256-0.666,0.446L6.762,28.283c-0.189,0.189-0.341,0.416-0.445,0.667c-0.105,0.25-0.162,0.521-0.162,0.797  v59.838c0,1.144,0.928,2.071,2.071,2.071h60.759c1.144,0,2.071-0.928,2.071-2.071V75.719h23.027c1.144,0,2.071-0.928,2.071-2.071  V47.238C96.155,46.095,95.227,45.167,94.084,45.167z M25.49,15.414v12.262H13.227L25.49,15.414z M66.914,87.514H10.298V31.819  h17.264c1.144,0,2.071-0.928,2.071-2.071V12.486h37.281v32.681H30.323c-1.144,0-2.071,0.928-2.071,2.071v26.409  c0,1.144,0.928,2.071,2.071,2.071h36.591V87.514z M92.013,71.576H32.395V49.31h59.618V71.576z M43.312,63.745h1.899  c4.048,0,6.106-2.613,6.106-5.668c0-3.053-2.058-5.552-6.106-5.552h-5.853V68.72h3.954V63.745z M43.312,55.973h1.111  c1.621,0,2.824,0.463,2.824,2.105c0,1.665-1.203,2.221-2.824,2.221h-1.111V55.973z M69.889,60.622c0-4.812-3.145-8.096-8.466-8.096  h-6.13V68.72h6.13C66.744,68.72,69.889,65.435,69.889,60.622z M59.271,55.973h2.268c2.15,0,4.28,1.504,4.28,4.65  c0,3.17-2.131,4.651-4.28,4.651h-2.268V55.973z M77.975,68.72h-3.978V52.526h12.447v3.447h-8.469v3.192h6.246v3.448h-6.246V68.72z" />
</svg>
