<svg xmlns="http://www.w3.org/2000/svg" xmlns:xlink="http://www.w3.org/1999/xlink" version="1.1" id="previous-icon" class="previous icon" x="0px" y="0px" viewBox="0 0 612 612" style="enable-background:new 0 0 612 612;" xml:space="preserve">
  <g>
    <g>
      <path class="arrow-icons" d="M587.572,186.877C555.307,111.66,500.512,56.865,425.287,24.592C387.41,8.345,347.992,0.164,306.504,0.164    c-41.497,0-81.215,8.259-119.127,24.428C111.524,56.943,56.415,111.531,24.092,186.877C7.895,224.632,0,264.172,0,305.668    c0,41.488,7.895,81.364,24.092,119.119c32.323,75.347,87.432,130.27,163.285,162.621c37.912,16.168,77.63,24.428,119.127,24.428    c41.488,0,80.906-8.181,118.783-24.428c75.225-32.273,130.02-87.403,162.285-162.621C603.819,386.91,612,347.156,612,305.668    C612,264.172,603.819,224.754,587.572,186.877z M553.443,410.396c-14.198,33.064-33.13,61.904-57.215,85.996    c-23.764,23.757-52.539,42.831-85.661,57.215c-33.13,14.392-67.594,21.415-104.063,21.415c-48.521,0-93.735-11.971-135.188-36.135    c-41.196-24.021-74.019-56.843-98.04-98.039c-24.164-41.453-36.135-86.668-36.135-135.181c0-48.52,12.043-93.356,36.135-134.517    c24.092-41.16,56.844-74.019,98.04-98.04c41.453-24.164,86.668-36.142,135.188-36.142c48.52,0,93.355,12.05,134.509,36.142    c41.16,24.092,73.826,56.958,97.711,98.04c23.964,41.231,36.135,85.997,36.135,134.517    C574.858,342.139,567.691,377.21,553.443,410.396z"></path>
      <path class="arrow-icons" d="M219.171,307.674l149.565-153.591c6.603-6.774,7.031-18.067-0.664-25.762c-6.696-6.689-18.503-7.117-26.105,0.671    L179.682,295.289c-6.61,6.774-7.024,18.411,0.671,26.106l161.614,161.614c3.684,3.683,8.031,5.688,13.057,5.688    c5.347,0,10.036-2.006,13.713-5.688c6.695-6.696,7.217-18.554,0-25.763L219.171,307.674z"></path>
    </g>
  </g>
</svg>
