<svg xmlns="http://www.w3.org/2000/svg" id="printer-icon" class="printer icon" xmlns:xlink="http://www.w3.org/1999/xlink" version="1.1" x="0px" y="0px" viewBox="0 0 100 125" enable-background="new 0 0 100 100" xml:space="preserve">
  <path d="M78.846,16.538H21.154V12.5c0-1.594,1.292-2.885,2.884-2.885h51.924c1.593,0,2.884,1.291,2.884,2.885V16.538z" />
  <path d="M89.23,18.846H10.77c-3.186,0-5.77,2.583-5.77,5.77V59.23C5,62.417,7.584,65,10.77,65h10.385v25.385h57.691V65H89.23  c3.188,0,5.77-2.583,5.77-5.77V24.615C95,21.429,92.419,18.846,89.23,18.846 M74.23,85.77H25.77V46.538H74.23V85.77z" />
</svg>
