<?xml version="1.0" encoding="utf-8"?>
<!-- Generator: Adobe Illustrator 19.1.0, SVG Export Plug-In . SVG Version: 6.00 Build 0)  -->
<svg version="1.1"
   id="svg2169" class="tutorial-icon" inkscape:output_extension="org.inkscape.output.svg.inkscape" sodipodi:docname="Python-logo-notext.svg" inkscape:version="0.48.4 r9939" sodipodi:version="0.32" xmlns:cc="http://creativecommons.org/ns#" xmlns:svg="http://www.w3.org/2000/svg" xmlns:sodipodi="http://sodipodi.sourceforge.net/DTD/sodipodi-0.dtd" xmlns:rdf="http://www.w3.org/1999/02/22-rdf-syntax-ns#" xmlns:dc="http://purl.org/dc/elements/1.1/" xmlns:inkscape="http://www.inkscape.org/namespaces/inkscape"
   xmlns="http://www.w3.org/2000/svg" xmlns:xlink="http://www.w3.org/1999/xlink" x="0px" y="0px" viewBox="-118 270.9 34.7 34.5"
   style="enable-background:new -118 270.9 34.7 34.5;" xml:space="preserve">
<style type="text/css">
  .stpy1{fill:url(#path8615_1_);}
  .stpy2{fill:url(#path8620_1_);}
</style>
<sodipodi:namedview  width="131.10236px" height="184.25197px" inkscape:window-maximized="1" inkscape:window-y="-8" inkscape:window-x="-8" inkscape:window-height="1017" inkscape:window-width="1920" inkscape:current-layer="layer1" inkscape:pageshadow="2" inkscape:pageopacity="0.0" inkscape:document-units="px" id="base" borderopacity="1.0" pagecolor="#ffffff" inkscape:cy="97.448695" inkscape:cx="68.549911" bordercolor="#666666" inkscape:zoom="2.8" showgrid="false">
  </sodipodi:namedview>
<g id="layer1" transform="translate(-473.36088,-250.57095)" inkscape:groupmode="layer" inkscape:label="Calque 1">
  <g id="g1894" transform="translate(428.7128,183.67915)">
    
      <linearGradient id="path8615_1_" gradientUnits="userSpaceOnUse" x1="-25.4106" y1="227.9683" x2="-8.2685" y2="210.7689" gradientTransform="matrix(1 0 0 -1 -44.6481 568.8918)">
      <stop  offset="0" style="stop-color:#387EB8"/>
      <stop  offset="1" style="stop-color:#366994"/>
    </linearGradient>
    <path id="path8615" inkscape:connector-curvature="0" class="stpy1" d="M-56.1,337.8c-8.8,0-8.3,3.8-8.3,3.8l0,4h8.4v1.2h-11.7
      c0,0-5.6-0.6-5.6,8.2c0,8.9,4.9,8.6,4.9,8.6h2.9v-4.1c0,0-0.2-4.9,4.8-4.9s8.3,0,8.3,0s4.7,0.1,4.7-4.5s0-7.6,0-7.6
      S-46.9,337.8-56.1,337.8z M-60.7,340.5c0.8,0,1.5,0.7,1.5,1.5s-0.7,1.5-1.5,1.5s-1.5-0.7-1.5-1.5S-61.6,340.5-60.7,340.5z"/>
    
      <linearGradient id="path8620_1_" gradientUnits="userSpaceOnUse" x1="-14.8691" y1="217.0192" x2="3.5415" y2="199.3809" gradientTransform="matrix(1 0 0 -1 -44.6481 568.8918)">
      <stop  offset="0" style="stop-color:#FFE052"/>
      <stop  offset="1" style="stop-color:#FFC331"/>
    </linearGradient>
    <path id="path8620" inkscape:connector-curvature="0" class="stpy2" d="M-55.9,372.3c8.8,0,8.3-3.8,8.3-3.8l0-4H-56v-1.2h11.7
      c0,0,5.6,0.6,5.6-8.2c0-8.9-4.9-8.6-4.9-8.6h-2.9v4.1c0,0,0.2,4.9-4.8,4.9s-8.3,0-8.3,0s-4.7-0.1-4.7,4.5s0,7.6,0,7.6
      S-65,372.3-55.9,372.3L-55.9,372.3z M-51.2,369.7c-0.8,0-1.5-0.7-1.5-1.5s0.7-1.5,1.5-1.5c0.8,0,1.5,0.7,1.5,1.5
      C-49.7,369-50.4,369.7-51.2,369.7z"/>
  </g>
</g>
</svg>
