<svg version="1.1" id="rss-cirlce-icon" class="rss circle icon" xmlns="http://www.w3.org/2000/svg" xmlns:xlink="http://www.w3.org/1999/xlink" x="0px" y="0px" viewBox="0 0 32 32" enable-background="new 0 0 32 32" xml:space="preserve">
<path d="M16,0C7.2,0,0,7.2,0,16c0,8.8,7.2,16,16,16s16-7.2,16-16C32,7.2,24.8,0,16,0z M10.3,24C9,24,8,23,8,21.7
	s1-2.3,2.3-2.3s2.3,1,2.3,2.3S11.6,24,10.3,24z M16.1,24c0-4.5-3.6-8.1-8.1-8.1v-2.5c5.8,0,10.6,4.7,10.6,10.6H16.1z M21.5,24
	c0-7.5-6.1-13.5-13.5-13.5V8c8.8,0,16,7.2,16,16H21.5z"/>
</svg>
