<?xml version="1.0" encoding="utf-8"?>
<!-- Generator: Adobe Illustrator 19.1.0, SVG Export Plug-In . SVG Version: 6.00 Build 0)  -->
<svg version="1.1" id="sass-icon" class="tutorial-icon" xmlns="http://www.w3.org/2000/svg" xmlns:xlink="http://www.w3.org/1999/xlink" x="0px" y="0px"
	 viewBox="6 59 512 512" style="enable-background:new 6 59 512 512;" xml:space="preserve">
<style type="text/css">
	.stsass1{fill:#FFFFFF;}
	.stsass2{fill:#CF649A;}
</style>
<script  id="sass-icon"></script>
<g>
	<circle class="stsass1" cx="262" cy="315" r="256"/>
	<path class="stsass2" d="M408.5,337.6c-14.2,0.1-26.5,3.5-36.8,8.6c-3.8-7.5-7.6-14.1-8.2-19c-0.7-5.7-1.6-9.2-0.7-16
		c0.9-6.8,4.8-16.5,4.8-17.3c-0.1-0.7-0.9-4.2-9-4.3c-8.2-0.1-15.2,1.6-16,3.7c-0.8,2.1-2.4,7.1-3.4,12.1
		c-1.4,7.5-16.3,33.9-24.8,47.8c-2.8-5.4-5.2-10.2-5.6-14c-0.7-5.7-1.6-9.2-0.7-16c0.9-6.8,4.8-16.5,4.8-17.3
		c-0.1-0.7-0.9-4.2-9-4.3c-8.2-0.1-15.2,1.6-16,3.7c-0.8,2.1-1.7,7.2-3.4,12.1c-1.7,4.9-21.5,49-26.7,60.5
		c-2.6,5.9-4.9,10.6-6.6,13.7c-1.7,3.2-0.1,0.2-0.2,0.6c-1.4,2.7-2.2,4.2-2.2,4.2v0.1c-1.1,2-2.3,3.9-2.9,3.9
		c-0.4,0-1.2-5.3,0.2-12.6c2.9-15.3,10.1-39.2,10-40.1c0-0.4,1.3-4.6-4.6-6.7c-5.8-2.1-7.9,1.4-8.3,1.4s-0.9,1.3-0.9,1.3
		s6.4-26.9-12.3-26.9c-11.7,0-27.9,12.8-35.9,24.4c-5.1,2.8-15.9,8.6-27.3,14.9c-4.4,2.4-8.9,4.9-13.2,7.2l-0.9-1
		c-22.7-24.2-64.6-41.3-62.9-73.9c0.6-11.8,4.8-43,80.6-80.8c62.1-30.9,111.8-22.4,120.5-3.6c12.3,27-26.6,77.1-91.1,84.3
		c-24.6,2.8-37.5-6.7-40.8-10.3c-3.4-3.7-3.9-3.9-5.2-3.2c-2.1,1.1-0.8,4.4,0,6.4c1.9,5,9.8,13.9,23.3,18.3
		c11.8,3.9,40.7,6,75.6-7.5c39.1-15.2,69.6-57.2,60.7-92.3c-9.1-35.8-68.5-47.5-124.5-27.6c-33.4,11.9-69.6,30.5-95.6,54.8
		c-30.9,28.9-35.9,54.1-33.8,64.6c7.2,37.4,58.7,61.7,79.3,79.7c-1,0.6-2,1.1-2.9,1.6c-10.3,5.1-49.6,25.6-59.4,47.4
		c-11.1,24.6,1.7,42.3,10.3,44.7c26.5,7.4,53.6-5.9,68.3-27.7c14.6-21.8,12.9-50.1,6.1-63.1l-0.2-0.5l8.1-4.8
		c5.2-3.1,10.4-5.9,14.9-8.4c-2.5,6.9-4.4,15.1-5.3,27c-1.1,14,4.6,32,12.1,39.2c3.3,3.1,7.3,3.2,9.8,3.2c8.7,0,12.7-7.2,17.1-15.9
		c5.4-10.6,10.2-22.8,10.2-22.8s-5.9,33.1,10.3,33.1c5.9,0,11.9-7.7,14.6-11.7v0.1c0,0,0.2-0.2,0.5-0.8c0.6-1,1-1.5,1-1.5v-0.2
		c2.4-4.1,7.7-13.6,15.6-29.2c10.2-20.1,20.1-45.4,20.1-45.4s1,6.2,3.9,16.3c1.7,6,5.6,12.6,8.5,19c-2.4,3.3-3.8,5.2-3.8,5.2
		l0.1,0.1c-1.9,2.5-4,5.2-6.3,7.9c-8.1,9.7-17.8,20.7-19,23.9c-1.5,3.7-1.2,6.5,1.7,8.7c2.1,1.6,5.9,1.9,10,1.6
		c7.3-0.5,12.4-2.3,14.9-3.4c4-1.4,8.5-3.6,12.9-6.7c7.9-5.9,12.8-14.2,12.3-25.3c-0.2-6.1-2.2-12.1-4.7-17.8c0.7-1,1.4-2.1,2.1-3.2
		c12.5-18.3,22.2-38.5,22.2-38.5s1,6.2,3.9,16.3c1.5,5.2,4.5,10.8,7.2,16.3c-11.7,9.6-19.1,20.7-21.7,28c-4.7,13.5-1,19.6,5.9,21
		c3.1,0.6,7.5-0.8,10.9-2.2c4.1-1.3,9.1-3.6,13.7-7.1c7.9-5.9,15.5-14,15.2-25.1c-0.2-5.1-1.6-10.1-3.4-14.8
		c10-4.1,22.9-6.5,39.3-4.5c35.3,4.1,42.3,26.2,40.9,35.4c-1.3,9.2-8.7,14.3-11.2,15.9c-2.5,1.5-3.3,2.1-3,3.2
		c0.3,1.7,1.4,1.6,3.6,1.3c2.9-0.5,18.6-7.5,19.2-24.5C465.9,361.2,445.2,337.4,408.5,337.6L408.5,337.6z M136.3,429.4
		c-11.7,12.8-28.1,17.6-35.1,13.5c-7.5-4.4-4.6-23.2,9.8-36.7c8.7-8.2,20.1-15.9,27.5-20.5c1.7-1,4.2-2.5,7.2-4.4
		c0.5-0.3,0.8-0.5,0.8-0.5c0.6-0.3,1.2-0.7,1.8-1.1C153.6,399,148.5,416,136.3,429.4L136.3,429.4z M221.5,371.4
		c-4,9.9-12.6,35.4-17.8,34c-4.4-1.2-7.1-20.5-0.9-39.5c3.2-9.6,9.9-21,13.9-25.5c6.4-7.1,13.4-9.5,15.2-6.6
		C234,337.6,224.1,365.2,221.5,371.4z M291.9,405c-1.7,0.9-3.3,1.5-4,1c-0.6-0.3,0.7-1.5,0.7-1.5s8.8-9.4,12.3-13.8
		c2-2.5,4.4-5.5,6.9-8.8v1C307.7,394.3,296.8,401.9,291.9,405z M346.1,392.6c-1.3-1-1.1-3.9,3.2-13.1c1.7-3.6,5.5-9.8,12.1-15.5
		c0.8,2.4,1.3,4.7,1.2,6.8C362.5,385.1,352.3,390.4,346.1,392.6z"/>
</g>
</svg>
