<svg version="1.1" id="site-logo" xmlns="http://www.w3.org/2000/svg" xmlns:xlink="http://www.w3.org/1999/xlink" x="0px" y="0px" viewBox="0 0 340.2 195" style="enable-background:new 0 0 340.2 195;" xml:space="preserve">
    <g>
        <g>
            <path d="M109.5,36.7c5.2,0,9.5,0.4,12.9,1.1L119.9,62c-3.7-0.9-7.5-1.3-11.5-1.3c-10.4,0-18.8,3.4-25.2,10.2
                        c-6.4,6.8-9.7,15.6-9.7,26.4V161H47.6v-122h20.3l3.4,21.5h1.3c4-7.3,9.3-13.1,15.8-17.3C95,38.9,102,36.7,109.5,36.7z" />
            <path d="M245.1,161l-15.8-56.9c-1.9-6-5.4-20-10.4-42h-1c-4.3,19.9-7.7,34-10.2,42.3L191.6,161h-28.7l-34.2-122h26.5l15.6,60.1
                        c3.5,14.9,6,27.6,7.5,38.2h0.7c0.7-5.4,1.9-11.5,3.4-18.5c1.5-7,2.8-12.2,3.9-15.6l18.5-64.2h28.5l18,64.2
                        c1.1,3.6,2.5,9.1,4.1,16.6c1.7,7.4,2.6,13.2,2.9,17.3h0.9c1.1-9,3.7-21.7,7.7-38l15.8-60.1h26l-34.4,122H245.1z" />
        </g>
        <line class="bar" x1="0" y1="5" x2="340.2" y2="5" />
        <line class="bar" x1="0" y1="190" x2="340.2" y2="190" />
    </g>
</svg>
