<svg version="1.1" id="skype-icon" class="skype icon" xmlns="http://www.w3.org/2000/svg" xmlns:xlink="http://www.w3.org/1999/xlink" x="0px" y="0px" viewBox="0 0 32 32" enable-background="new 0 0 32 32" xml:space="preserve">
    <path d="M13.3,1.2c-0.1,0-0.1-0.1-0.2-0.1c-0.1,0-0.1,0-0.2,0L13.3,1.2z" />
    <path d="M1.2,13.2c0,0.1,0,0.1,0,0.2c0,0.1,0.1,0.1,0.1,0.2L1.2,13.2z" />
    <path d="M30.8,18.8c0-0.1,0-0.1,0-0.2c0-0.1-0.1-0.1-0.1-0.2L30.8,18.8z" />
    <path d="M18.5,30.7c0.1,0,0.1,0.1,0.2,0.1c0.1,0,0.1,0,0.2,0L18.5,30.7z" />
    <path d="M30.9,18.7c0,0.1,0,0.1,0,0.2l-0.1-0.3C30.8,18.6,30.8,18.6,30.9,18.7c0.2-0.9,0.3-1.8,0.3-2.7
	c0-2-0.4-4-1.2-5.9c-0.8-1.8-1.8-3.4-3.2-4.8c-1.4-1.4-3-2.5-4.8-3.2C20,1.2,18,0.8,16,0.8c-1,0-1.9,0.1-2.9,0.3c0,0,0,0,0,0
	c0.1,0,0.1,0.1,0.2,0.1l-0.3,0c0.1,0,0.1,0,0.2,0c-1.3-0.7-2.7-1-4.2-1C6.6,0,4.3,1,2.6,2.7C0.9,4.3,0,6.6,0,9c0,1.5,0.4,3,1.1,4.3
	c0-0.1,0-0.1,0-0.2l0.1,0.3c0,0-0.1-0.1-0.1-0.2c-0.1,0.9-0.2,1.7-0.2,2.6c0,2,0.4,4,1.2,5.9c0.8,1.8,1.8,3.4,3.2,4.8
	c1.4,1.4,3,2.5,4.8,3.2C12,30.6,14,31,16,31c0.9,0,1.8-0.1,2.6-0.2c-0.1,0-0.1-0.1-0.2-0.1l0.3,0.1c-0.1,0-0.1,0-0.2,0
	c1.3,0.8,2.9,1.2,4.4,1.2c2.4,0,4.6-0.9,6.3-2.6c1.7-1.7,2.6-3.9,2.6-6.3C32,21.5,31.6,20,30.9,18.7z M16.1,25.2
	c-5.4,0-7.8-2.6-7.8-4.6c0-1,0.7-1.7,1.8-1.7c2.3,0,1.7,3.3,6,3.3c2.2,0,3.4-1.2,3.4-2.4c0-0.7-0.4-1.5-1.8-1.9l-4.8-1.2
	c-3.8-1-4.5-3-4.5-5c0-4.1,3.8-5.6,7.4-5.6c3.3,0,7.2,1.8,7.2,4.3c0,1-0.9,1.6-1.9,1.6c-2,0-1.6-2.7-5.5-2.7c-2,0-3,0.9-3,2.2
	c0,1.3,1.5,1.7,2.9,2l3.5,0.8c3.9,0.9,4.9,3.1,4.9,5.3C23.7,22.7,21.2,25.2,16.1,25.2z" />
</svg>
