<svg version="1.1" id="slack-icon" class="slack icon" xmlns="http://www.w3.org/2000/svg" xmlns:xlink="http://www.w3.org/1999/xlink" x="0px" y="0px" viewBox="0 0 32 32" enable-background="new 0 0 32 32" xml:space="preserve">
<rect x="13.8" y="13.7" transform="matrix(-0.3176 -0.9482 0.9482 -0.3176 5.91 36.2532)" width="4.3" height="4.5"/>
<rect x="13.8" y="13.7" transform="matrix(-0.3176 -0.9482 0.9482 -0.3176 5.91 36.2532)" width="4.3" height="4.5"/>
<path d="M30.7,11.6C27.4,0.6,22.6-2,11.6,1.3C0.6,4.6-2,9.4,1.3,20.4c3.3,11,8.1,13.6,19.1,10.3
	C31.4,27.4,34,22.6,30.7,11.6z M25.1,18.7L23,19.4l0.7,2.1c0.3,0.9-0.2,1.8-1,2.1c-0.2,0.1-0.4,0.1-0.6,0.1c-0.7,0-1.3-0.5-1.5-1.1
	l-0.7-2.1l-4.3,1.4l0.7,2.1c0.3,0.9-0.2,1.8-1,2.1c-0.2,0.1-0.4,0.1-0.6,0.1c-0.7,0-1.3-0.5-1.5-1.1L12.5,23l-2.1,0.7
	c-0.2,0.1-0.4,0.1-0.6,0.1c-0.7,0-1.3-0.5-1.5-1.1c-0.3-0.9,0.2-1.8,1-2.1l2.1-0.7L10,15.7L8,16.4c-0.2,0.1-0.4,0.1-0.6,0.1
	c-0.7,0-1.3-0.5-1.5-1.1c-0.3-0.9,0.2-1.8,1-2.1L9,12.6l-0.7-2.1C8,9.6,8.4,8.6,9.3,8.3c0.9-0.3,1.8,0.2,2.1,1l0.7,2.1l4.3-1.4
	l-0.7-2.1c-0.3-0.9,0.2-1.8,1-2.1c0.9-0.3,1.8,0.2,2.1,1L19.5,9l2.1-0.7c0.9-0.3,1.8,0.2,2.1,1c0.3,0.9-0.2,1.8-1,2.1l-2.1,0.7
	l1.4,4.1l2.1-0.7c0.9-0.3,1.8,0.2,2.1,1C26.4,17.5,26,18.4,25.1,18.7z"/>
</svg>
