<svg version="1.1" id="soundcloud-circle-icon" class="soundcloud circle icon" xmlns="http://www.w3.org/2000/svg" xmlns:xlink="http://www.w3.org/1999/xlink" x="0px" y="0px" viewBox="0 0 32 32" enable-background="new 0 0 32 32" xml:space="preserve">
    <path d="M16,0C7.2,0,0,7.2,0,16c0,8.8,7.2,16,16,16s16-7.2,16-16C32,7.2,24.8,0,16,0z M8.4,19.1c0,0-0.1,0.1-0.1,0.1
	c-0.1,0-0.1,0-0.1-0.1l-0.3-1.5l0.3-1.5c0,0,0.1-0.1,0.1-0.1c0.1,0,0.1,0,0.1,0.1l0.4,1.5L8.4,19.1z M11.1,19.5L11.1,19.5
	c0,0.1-0.1,0.1-0.3,0.1c-0.2,0-0.3-0.1-0.3-0.1l-0.3-1.8l0.3-2.7c0-0.1,0.1-0.1,0.3-0.1c0.1,0,0.3,0.1,0.3,0.1l0.3,2.7L11.1,19.5z
	 M14.1,19.4L14.1,19.4c0,0.1-0.2,0.2-0.5,0.2c-0.3,0-0.5-0.1-0.5-0.2l-0.3-1.7l0.3-3.7c0-0.1,0.2-0.2,0.5-0.2c0.3,0,0.5,0.1,0.5,0.2
	l0.3,3.7L14.1,19.4z M22,19.6c0,0-5.6,0-5.6,0c-0.1,0-0.2-0.1-0.2-0.2v-6.5c0-0.1,0-0.2,0.2-0.2c0.4-0.2,0.8-0.2,1.3-0.2
	c1.9,0,3.4,1.4,3.6,3.3c0.2-0.1,0.5-0.2,0.8-0.2c1.1,0,2,0.9,2,2C24,18.7,23.1,19.6,22,19.6z" />
</svg>
