<svg version="1.1" id="soundcloud-icon" xmlns="http://www.w3.org/2000/svg" xmlns:xlink="http://www.w3.org/1999/xlink" x="0px" y="0px" viewBox="0 0 32 32" enable-background="new 0 0 32 32" xml:space="preserve">
<path d="M0.6,16.4c0-0.1-0.1-0.1-0.1-0.1c-0.1,0-0.1,0.1-0.1,0.1l-0.3,3l0.3,2.9c0,0.1,0.1,0.1,0.1,0.1
	c0.1,0,0.1-0.1,0.1-0.1L1,19.4L0.6,16.4z"/>
<path d="M5.7,13.7c-0.1,0-0.2,0.1-0.3,0.2l-0.3,5.5l0.3,3.5c0,0.1,0.1,0.2,0.3,0.2c0.1,0,0.2-0.1,0.3-0.2v0l0.3-3.5
	L6,13.9C6,13.8,5.9,13.7,5.7,13.7z"/>
<path d="M3.1,15.6c-0.1,0-0.2,0.1-0.2,0.2l-0.3,3.6l0.3,3.5c0,0.1,0.1,0.2,0.2,0.2c0.1,0,0.2-0.1,0.2-0.2l0.3-3.5
	l-0.3-3.6C3.3,15.6,3.2,15.6,3.1,15.6z"/>
<path d="M8.4,23.2c0.2,0,0.3-0.1,0.3-0.3L9,19.4l-0.3-7.3c0-0.2-0.1-0.3-0.3-0.3c-0.2,0-0.3,0.1-0.3,0.3l-0.2,7.3
	l0.2,3.5C8.1,23,8.3,23.2,8.4,23.2z"/>
<path d="M14,23.2c0.2,0,0.4-0.2,0.4-0.4v0v0l0.2-3.4L14.4,11c0-0.2-0.2-0.4-0.4-0.4c-0.2,0-0.4,0.2-0.4,0.4l-0.2,8.4
	c0,0,0.2,3.4,0.2,3.4C13.5,23,13.7,23.2,14,23.2z"/>
<path d="M11.2,23.2c0.2,0,0.4-0.2,0.4-0.4v0l0.2-3.4L11.5,12c0-0.2-0.2-0.4-0.4-0.4c-0.2,0-0.4,0.2-0.4,0.4l-0.2,7.3
	l0.2,3.4C10.8,23,11,23.2,11.2,23.2z"/>
<path d="M27.9,15c-0.6,0-1.1,0.1-1.6,0.3c-0.3-3.7-3.4-6.6-7.2-6.6c-0.9,0-1.8,0.2-2.6,0.5c-0.3,0.1-0.4,0.2-0.4,0.5
	v12.9c0,0.2,0.2,0.5,0.4,0.5c0,0,11.2,0,11.3,0c2.3,0,4.1-1.8,4.1-4.1S30.2,15,27.9,15z"/>
</svg>
