<svg enable-background="new 0 0 128 128" height="128px" id="twitter-square-icon" class="twitter square icon" version="1.1" viewBox="0 0 128 128" width="128px" xml:space="preserve" xmlns="http://www.w3.org/2000/svg" xmlns:xlink="http://www.w3.org/1999/xlink">
    <g>
        <rect height="128" width="128" />
    </g>
    <g>
        <path d="M109,37.71c-3.237,1.437-6.716,2.407-10.37,2.842c3.729-2.234,6.589-5.772,7.938-9.988   c-3.488,2.069-7.353,3.572-11.465,4.381c-3.293-3.509-7.985-5.702-13.176-5.702c-9.973,0-18.056,8.083-18.056,18.053   c0,1.416,0.16,2.792,0.468,4.115c-15.007-0.753-28.309-7.941-37.213-18.863c-1.554,2.665-2.445,5.768-2.445,9.076   c0,6.263,3.188,11.79,8.032,15.027c-2.959-0.094-5.745-0.907-8.178-2.26c-0.002,0.076-0.002,0.152-0.002,0.228   c0,8.75,6.223,16.042,14.482,17.703c-1.516,0.412-3.11,0.633-4.756,0.633c-1.164,0-2.295-0.114-3.397-0.325   c2.298,7.173,8.966,12.395,16.865,12.539c-6.178,4.84-13.963,7.726-22.422,7.726c-1.458,0-2.895-0.083-4.307-0.252   c7.989,5.123,17.481,8.112,27.676,8.112c33.207,0,51.367-27.511,51.367-51.368c0-0.782-0.021-1.562-0.054-2.335   C103.52,44.51,106.579,41.33,109,37.71" fill="#FFFFFF" />
    </g>
</svg>
