<svg xmlns="http://www.w3.org/2000/svg" id="wercker-icon" class="wercker icon" viewBox="0 0 24 32" version="1.1">
    <g class="logo-group">
        <path d="M0 7.1 L0 16.6 L2.22231629 16.6 L2.22231629 8.4 L11.9994612 2.6 L21.7781455 8.4 L21.7781455 18.8 C21.7781455 20.4 21.2 21.7 20.2 23.1 C17.7823786 26.4 13.4 28.8 12 29.5 C10.6222316 28.8 6.6 26.6 4 23.5 L16.8880337 23.5 C17.8217852 22.6 18.1 22.3 18.9 21.2 L0.308941525 21.2 C2.11548748 27.6 12 32.1 12 32.1 C11.9974601 32.1 21.9 27.7 23.7 21.2 C23.8883993 20.5 24 19.6 24 18.8 L24 7.1 L11.9994612 0.1 L0 7.1 L0 7.1 Z" />
        <path d="M6.19539365 10.3 L17.6277556 10.3 L17.6277556 12.2 L6.19539365 12.2 L6.19539365 10.3 L6.19539365 10.3 Z"/>
        <path d="M5.23987074 13.7 L18.5774736 13.7 L18.5774736 15.6 L5.23987074 15.6 L5.23987074 13.7 L5.23987074 13.7 Z" />
        <path d="M5 17 L18.3376028 17 L18.3376028 18.9 L5 18.9 L5 17 L5 17 Z" />
        <path d="M9.28881316 7 L14.5286839 7 L14.5286839 8.9 L9.28881316 8.9 L9.28881316 7 L9.28881316 7 Z" />
    </g>
</svg>
