<svg version="1.1" id="yelp-circle-icon" class="yelp circle icon" xmlns="http://www.w3.org/2000/svg" xmlns:xlink="http://www.w3.org/1999/xlink" x="0px" y="0px" viewBox="0 0 32 32" enable-background="new 0 0 32 32" xml:space="preserve">
<path d="M16,0C7.2,0,0,7.2,0,16c0,8.8,7.2,16,16,16s16-7.2,16-16C32,7.2,24.8,0,16,0z M10.2,19
	c-0.1-0.1-0.1-0.4-0.2-0.7c-0.1-0.9,0-2.2,0.3-2.6c0.1-0.2,0.3-0.3,0.5-0.3c0.1,0,0.2,0,2.8,1.1c0,0,0.7,0.3,0.7,0.3
	c0.3,0.1,0.4,0.4,0.4,0.7c0,0.3-0.2,0.6-0.5,0.6c0,0-1,0.3-1,0.3c-2.3,0.8-2.4,0.8-2.6,0.8C10.5,19.3,10.3,19.2,10.2,19z M16,20.9
	c0,2.5,0,2.6-0.1,2.7c-0.1,0.2-0.2,0.3-0.4,0.4c-0.6,0.1-2.6-0.6-3-1.1c-0.1-0.1-0.1-0.2-0.1-0.3c0-0.1,0-0.2,0-0.2
	c0-0.1,0.1-0.2,1.9-2.3c0,0,0.5-0.6,0.5-0.6c0.2-0.2,0.5-0.3,0.8-0.2c0.3,0.1,0.5,0.4,0.4,0.6C16,19.8,16,20.9,16,20.9z M15.6,15.6
	c-0.1,0-0.5,0.2-1-0.6c0,0-3.2-5.2-3.3-5.3c0-0.2,0-0.4,0.2-0.5C12,8.6,14.6,7.9,15.3,8c0.2,0.1,0.4,0.2,0.4,0.4
	c0,0.2,0.4,5,0.4,6.1C16.1,15.5,15.7,15.6,15.6,15.6z M17.3,15.9c0,0,0.7-0.9,0.7-0.9c1.4-2,1.5-2.1,1.6-2.2c0.2-0.1,0.4-0.1,0.6,0
	c0.6,0.3,1.7,2,1.8,2.7c0,0,0,0,0,0c0,0.2-0.1,0.4-0.2,0.5c-0.1,0.1-0.2,0.1-2.9,0.8C18.3,16.9,18.1,17,18,17c0,0,0,0,0,0
	c-0.3,0.1-0.6-0.1-0.7-0.3C17.1,16.4,17.1,16.1,17.3,15.9z M20,22.8c-0.2,0.1-0.4,0.1-0.6-0.1c-0.1-0.1-0.2-0.2-1.6-2.6l-0.4-0.7
	c-0.2-0.2-0.1-0.6,0.1-0.8c0.2-0.2,0.5-0.3,0.7-0.2c0,0,1,0.4,1,0.4c2.3,0.8,2.4,0.8,2.5,0.9c0.2,0.1,0.2,0.3,0.2,0.5
	C21.9,20.8,20.6,22.5,20,22.8z"/>
</svg>
